<?xml version="1.0" encoding="iso-8859-1"?>
<svg version="1.1" id="Layer_1" xmlns="http://www.w3.org/2000/svg" xmlns:xlink="http://www.w3.org/1999/xlink" x="0px" y="0px"
	 viewBox="0 0 512 512" style="enable-background:new 0 0 512 512;" xml:space="preserve">
<g>
	<g>
		<g>
			<path d="M443.689,152.729c-0.002-0.016-0.006-0.032-0.007-0.049c-0.028-0.261-0.067-0.521-0.119-0.779
				c-0.023-0.116-0.057-0.227-0.085-0.341c-0.039-0.157-0.073-0.314-0.121-0.47c-0.041-0.132-0.092-0.259-0.139-0.389
				c-0.048-0.132-0.09-0.266-0.145-0.396c-0.062-0.149-0.136-0.291-0.206-0.435c-0.052-0.106-0.097-0.214-0.154-0.319
				c-0.122-0.226-0.256-0.445-0.398-0.659c-0.013-0.019-0.023-0.039-0.036-0.059c-0.159-0.236-0.33-0.463-0.512-0.681
				c-0.004-0.005-0.008-0.011-0.012-0.016c-0.053-0.063-0.112-0.118-0.166-0.18c-0.127-0.143-0.253-0.287-0.389-0.422
				c-0.101-0.101-0.209-0.191-0.314-0.286c-0.1-0.09-0.198-0.182-0.302-0.268c-0.123-0.1-0.251-0.19-0.378-0.283
				c-0.097-0.07-0.191-0.144-0.291-0.21c-0.129-0.085-0.261-0.161-0.394-0.239c-0.108-0.064-0.215-0.13-0.326-0.189
				c-0.124-0.066-0.252-0.123-0.378-0.182c-0.127-0.06-0.252-0.121-0.383-0.174c-0.117-0.048-0.236-0.087-0.354-0.13
				c-0.144-0.052-0.288-0.105-0.435-0.149c-0.114-0.034-0.231-0.06-0.346-0.089c-0.153-0.039-0.305-0.08-0.461-0.11
				c-0.131-0.026-0.264-0.041-0.396-0.06c-0.141-0.021-0.28-0.045-0.423-0.059c-0.191-0.018-0.382-0.023-0.574-0.029
				c-0.082-0.002-0.161-0.012-0.243-0.012h-0.043c-0.002,0-0.003,0-0.005,0H332.848c-0.002,0-0.003,0-0.005,0H332.8
				c-0.082,0-0.162,0.01-0.243,0.012c-0.192,0.006-0.383,0.011-0.574,0.029c-0.143,0.014-0.282,0.038-0.423,0.059
				c-0.132,0.019-0.265,0.035-0.396,0.06c-0.156,0.03-0.308,0.071-0.461,0.11c-0.116,0.029-0.232,0.055-0.346,0.089
				c-0.148,0.044-0.291,0.097-0.435,0.149c-0.118,0.042-0.238,0.082-0.354,0.13c-0.13,0.053-0.256,0.115-0.383,0.174
				c-0.127,0.059-0.254,0.117-0.378,0.182c-0.111,0.059-0.218,0.125-0.326,0.189c-0.132,0.078-0.265,0.154-0.394,0.239
				c-0.1,0.066-0.194,0.14-0.291,0.21c-0.127,0.092-0.255,0.183-0.378,0.283c-0.104,0.085-0.202,0.178-0.302,0.268
				c-0.105,0.095-0.213,0.185-0.314,0.286c-0.136,0.135-0.262,0.278-0.389,0.422c-0.054,0.061-0.113,0.116-0.166,0.18
				c-0.004,0.005-0.008,0.011-0.012,0.016c-0.181,0.218-0.353,0.445-0.512,0.681c-0.013,0.019-0.023,0.039-0.036,0.059
				c-0.142,0.214-0.276,0.432-0.398,0.659c-0.056,0.104-0.102,0.213-0.154,0.319c-0.07,0.144-0.144,0.286-0.206,0.435
				c-0.055,0.13-0.097,0.264-0.145,0.396c-0.047,0.13-0.099,0.257-0.139,0.389c-0.048,0.155-0.082,0.313-0.121,0.47
				c-0.028,0.114-0.062,0.225-0.085,0.341c-0.052,0.258-0.091,0.518-0.119,0.779c-0.002,0.016-0.006,0.032-0.007,0.049
				c-0.029,0.283-0.043,0.568-0.043,0.852c0,0.007-0.001,0.013-0.001,0.02v76.8c0,4.713,3.82,8.533,8.533,8.533h102.4
				c4.713,0,8.533-3.82,8.533-8.533v-76.8c0-0.007-0.001-0.013-0.001-0.02C443.732,153.296,443.718,153.012,443.689,152.729z
				 M411.631,162.133L384,185.159l-27.63-23.025H411.631z M341.333,221.867v-50.048l37.204,31.003c3.165,2.637,7.761,2.637,10.926,0
				l37.204-31.003v50.048H341.333z"/>
			<path d="M179.2,341.333c4.713,0,8.533-3.821,8.533-8.533V256c0-0.007-0.001-0.013-0.001-0.02c0-0.284-0.014-0.568-0.043-0.852
				c-0.002-0.018-0.006-0.035-0.008-0.052c-0.028-0.26-0.066-0.519-0.118-0.776c-0.024-0.116-0.058-0.229-0.086-0.343
				c-0.038-0.156-0.073-0.313-0.12-0.467c-0.041-0.133-0.093-0.261-0.14-0.391c-0.048-0.132-0.09-0.265-0.144-0.394
				c-0.063-0.149-0.137-0.292-0.208-0.437c-0.051-0.105-0.096-0.213-0.152-0.316c-0.124-0.23-0.26-0.453-0.404-0.669
				c-0.01-0.016-0.019-0.032-0.029-0.048c-0.159-0.236-0.331-0.463-0.512-0.682c-0.004-0.005-0.008-0.011-0.012-0.016
				c-0.052-0.063-0.111-0.117-0.165-0.178c-0.127-0.144-0.254-0.288-0.391-0.424c-0.101-0.1-0.208-0.19-0.313-0.284
				c-0.101-0.09-0.199-0.183-0.303-0.269c-0.122-0.1-0.25-0.19-0.376-0.282c-0.098-0.071-0.193-0.144-0.293-0.211
				c-0.128-0.085-0.26-0.16-0.391-0.237c-0.109-0.064-0.217-0.131-0.329-0.191c-0.124-0.065-0.251-0.122-0.377-0.182
				c-0.127-0.06-0.253-0.121-0.383-0.174c-0.117-0.048-0.236-0.087-0.354-0.13c-0.144-0.052-0.288-0.105-0.435-0.149
				c-0.114-0.034-0.231-0.06-0.346-0.089c-0.153-0.039-0.305-0.08-0.461-0.11c-0.131-0.026-0.264-0.041-0.396-0.06
				c-0.141-0.021-0.28-0.045-0.423-0.059c-0.191-0.018-0.382-0.023-0.574-0.029c-0.082-0.002-0.161-0.012-0.243-0.012h-0.043
				c-0.002,0-0.003,0-0.005,0H76.848c-0.002,0-0.003,0-0.005,0H76.8c-0.082,0-0.162,0.01-0.243,0.012
				c-0.192,0.006-0.383,0.011-0.574,0.029c-0.143,0.014-0.282,0.038-0.423,0.059c-0.132,0.019-0.265,0.035-0.396,0.06
				c-0.156,0.03-0.308,0.071-0.461,0.11c-0.116,0.029-0.232,0.055-0.346,0.089c-0.148,0.044-0.291,0.097-0.435,0.149
				c-0.118,0.042-0.238,0.082-0.354,0.13c-0.13,0.053-0.256,0.115-0.383,0.174c-0.126,0.059-0.253,0.116-0.377,0.182
				c-0.112,0.06-0.22,0.126-0.329,0.191c-0.131,0.077-0.263,0.153-0.391,0.237c-0.101,0.067-0.196,0.14-0.293,0.211
				c-0.127,0.092-0.254,0.182-0.376,0.282c-0.105,0.085-0.203,0.178-0.303,0.269c-0.105,0.094-0.212,0.184-0.313,0.284
				c-0.137,0.135-0.264,0.279-0.391,0.424c-0.054,0.061-0.112,0.116-0.165,0.178c-0.004,0.005-0.008,0.011-0.012,0.016
				c-0.181,0.218-0.353,0.445-0.512,0.682c-0.011,0.016-0.019,0.032-0.029,0.048c-0.144,0.217-0.28,0.439-0.404,0.669
				c-0.056,0.104-0.101,0.211-0.152,0.316c-0.071,0.145-0.145,0.288-0.208,0.437c-0.054,0.13-0.097,0.263-0.144,0.394
				c-0.047,0.13-0.099,0.258-0.14,0.391c-0.047,0.154-0.082,0.311-0.12,0.467c-0.028,0.115-0.063,0.227-0.086,0.343
				c-0.052,0.257-0.09,0.516-0.118,0.776c-0.002,0.018-0.006,0.034-0.008,0.052c-0.029,0.283-0.043,0.568-0.043,0.852
				c0,0.007-0.001,0.013-0.001,0.02v76.8c0,4.713,3.82,8.533,8.533,8.533H179.2z M85.333,324.267v-50.048l37.204,31.003
				c3.165,2.637,7.761,2.637,10.926,0l37.204-31.003v50.048H85.333z M100.369,264.533h55.261L128,287.559L100.369,264.533z"/>
			<path d="M247.467,42.667h42.667c4.713,0,8.533-3.82,8.533-8.533s-3.821-8.533-8.533-8.533h-42.667
				c-4.713,0-8.533,3.821-8.533,8.533S242.754,42.667,247.467,42.667z"/>
			<path d="M213.333,42.667h8.533c4.713,0,8.533-3.82,8.533-8.533s-3.821-8.533-8.533-8.533h-8.533
				c-4.713,0-8.533,3.821-8.533,8.533S208.62,42.667,213.333,42.667z"/>
			<path d="M494.933,191.147c0-48.884-40.879-88.955-93.867-96.133V59.733V33.809C401.067,15.136,385.931,0,367.258,0H144.742
				c-18.673,0-33.809,15.136-33.809,33.809v25.924V76.8c-4.713,0-8.533,3.82-8.533,8.533v8.533c0,4.713,3.821,8.533,8.533,8.533
				v8.533c-4.713,0-8.533,3.82-8.533,8.533V128c0,4.713,3.821,8.533,8.533,8.533v8.533c-4.713,0-8.533,3.821-8.533,8.533v8.533
				c0,4.713,3.821,8.533,8.533,8.533v26.747c-52.988,7.178-93.867,47.249-93.867,96.133c0,49.104,41.105,90.359,93.867,97.791V435.2
				v42.991c0,18.673,15.136,33.809,33.809,33.809h222.515c18.673,0,33.809-15.136,33.809-33.809V435.2V288.938
				C453.829,281.505,494.933,240.251,494.933,191.147z M144.742,17.067h222.515c9.248,0,16.742,7.495,16.742,16.742V51.2H128V33.809
				C128,24.561,135.495,17.067,144.742,17.067z M34.133,293.547c0-41.463,37.087-75.994,84.941-79.85
				c0.333,0.015,0.669,0.015,1.009-0.01c2.661-0.193,4.653-0.301,6.5-0.338c0.472-0.006,0.942-0.015,1.416-0.015
				c52.089,0,93.867,36.206,93.867,80.213c0,15.323-5.155,29.284-15.319,42.612c-1.288,1.689-1.9,3.798-1.716,5.914
				c1.303,14.991,3.943,28.429,8.412,39.205c-6.96-1.395-13.823-3.153-20.281-5.305c-6.845-2.281-12.915-4.91-17.995-7.875
				c-2.289-1.336-5.069-1.533-7.523-0.533c-12.907,5.261-25.692,7.902-39.446,7.902c-0.465,0-0.928-0.01-1.392-0.016
				c-1.837-0.038-3.82-0.15-6.499-0.353c-0.345-0.026-0.686-0.026-1.023-0.012C71.555,371.072,34.133,335.354,34.133,293.547z
				 M128,478.191v-34.458h105.434c-7.09,6.254-11.567,15.401-11.567,25.6s4.477,19.346,11.567,25.6h-88.692
				C135.495,494.933,128,487.439,128,478.191z M256,486.4c-9.427,0-17.067-7.64-17.067-17.067s7.64-17.067,17.067-17.067
				c9.427,0,17.067,7.64,17.067,17.067S265.427,486.4,256,486.4z M367.258,494.933h-88.692c7.09-6.254,11.567-15.401,11.567-25.6
				s-4.477-19.346-11.567-25.6H384v34.458C384,487.439,376.505,494.933,367.258,494.933z M384,426.667H128v-34.133
				c14.648,0,28.409-2.583,42.047-7.666c5.282,2.754,11.152,5.174,17.52,7.296c9.237,3.079,19.054,5.39,28.86,7.058
				c3.425,0.583,6.61,1.045,9.478,1.399c1.747,0.216,3.02,0.349,3.742,0.413c8.012,0.709,12.466-9.046,6.683-14.636
				c-7.348-7.102-12.17-23.188-14.193-42.623c11.025-15.418,16.795-32.063,16.795-50.228c0-54.02-49.918-97.28-110.933-97.28v-128
				h256v25.6c-61.015,0-110.933,43.26-110.933,97.28c0,18.165,5.77,34.81,16.795,50.228c-2.023,19.435-6.845,35.521-14.193,42.623
				c-5.783,5.59-1.329,15.345,6.683,14.636c0.722-0.064,1.995-0.197,3.742-0.413c2.868-0.354,6.053-0.816,9.478-1.399
				c9.806-1.668,19.623-3.979,28.86-7.058c6.368-2.122,12.239-4.542,17.52-7.296c13.638,5.083,27.399,7.666,42.047,7.666V426.667z
				 M392.914,272.686c-0.337-0.015-0.678-0.014-1.023,0.012c-2.679,0.202-4.661,0.315-6.499,0.353
				c-0.464,0.006-0.927,0.016-1.392,0.016c-13.753,0-26.538-2.641-39.446-7.902c-2.454-1-5.234-0.804-7.523,0.533
				c-5.08,2.965-11.15,5.594-17.995,7.875c-6.458,2.152-13.321,3.91-20.281,5.305c4.469-10.776,7.109-24.214,8.412-39.205
				c0.184-2.116-0.428-4.225-1.716-5.914c-10.164-13.328-15.319-27.288-15.319-42.612c0-44.008,41.777-80.213,93.867-80.213
				c0.473,0,0.944,0.009,1.416,0.015c1.847,0.037,3.839,0.145,6.5,0.338c0.341,0.025,0.677,0.025,1.009,0.01
				c47.854,3.856,84.941,38.387,84.941,79.85C477.867,232.954,440.445,268.672,392.914,272.686z"/>
		</g>
	</g>
</g>
<g>
</g>
<g>
</g>
<g>
</g>
<g>
</g>
<g>
</g>
<g>
</g>
<g>
</g>
<g>
</g>
<g>
</g>
<g>
</g>
<g>
</g>
<g>
</g>
<g>
</g>
<g>
</g>
<g>
</g>
</svg>