<?xml version="1.0" encoding="UTF-8"?>
<!DOCTYPE svg PUBLIC "-//W3C//DTD SVG 1.1//EN" "http://www.w3.org/Graphics/SVG/1.1/DTD/svg11.dtd">
<!-- Creator: CorelDRAW X7 -->
<svg xmlns="http://www.w3.org/2000/svg" xml:space="preserve" width="215.9mm" height="279.4mm" version="1.1" style="shape-rendering:geometricPrecision; text-rendering:geometricPrecision; image-rendering:optimizeQuality; fill-rule:evenodd; clip-rule:evenodd"
viewBox="0 0 21590 27940"
 xmlns:xlink="http://www.w3.org/1999/xlink">
 <defs>
  <style type="text/css">
   <![CDATA[
    .fil0 {fill:#0355AD}
    .fil1 {fill:#192C59}
    .fil2 {fill:black;fill-rule:nonzero}
   ]]>
  </style>
 </defs>
 <g id="Layer_x0020_1">
  <metadata id="CorelCorpID_0Corel-Layer"/>
  <path class="fil0" d="M12659 6017l2874 4897 -3581 0 -688 -1170 -3621 6173 -3581 0 5808 -9900 2789 0 0 0zm4517 7698l1291 2202 -3581 0 -1291 -2202 3581 0z"/>
  <polygon class="fil1" points="12414,11703 17237,11703 17956,12927 13132,12927 "/>
  <path class="fil2" d="M6206 19710l-641 -2821 -712 0 -1717 2821 745 0 296 -513 1188 0 99 513 742 0zm-959 -1111l-720 0 535 -927 185 927zm3403 505l-1390 0 423 -2215 -695 0 -538 2821 2084 0 116 -606zm2583 8l-1503 0 101 -530 1369 0 107 -564 -1368 0 101 -531 1491 0 114 -598 -2186 0 -538 2821 2198 0 114 -598zm1015 598l538 -2821 -695 0 -538 2821 695 0zm2269 0l821 0 -614 -1415 1144 -1406 -821 0 -763 952 -395 -952 -821 0 607 1406 -1154 1415 821 0 769 -960 406 960zm2908 -2884c-842,0 -1628,653 -1785,1478 -157,821 381,1469 1223,1469 842,0 1627,-648 1783,-1469 158,-825 -379,-1478 -1221,-1478zm-441 2312c-459,0 -741,-354 -649,-834 92,-484 510,-842 969,-842 459,0 740,358 647,842 -91,480 -508,834 -967,834z"/>
  <g id="_1921128153088">
   <polygon class="fil2" points="3026,21898 3185,21062 2787,21062 2808,20953 3722,20953 3701,21062 3303,21062 3143,21898 "/>
   <path class="fil2" d="M4263 21374l418 0c59,0 107,-13 142,-40 36,-26 58,-64 68,-115 9,-49 2,-88 -24,-116 -25,-28 -65,-41 -121,-41l-423 0 -60 312zm-218 524l181 -945 543 0c92,0 160,23 203,70 44,46 58,111 42,193 -13,68 -44,127 -95,175 -50,49 -110,80 -180,92l157 415 -129 0 -158 -414 -367 0 -79 414 -118 0z"/>
   <path class="fil2" d="M5728 21534l417 0 -129 -419 -288 419zm-374 364l644 -945 97 0 289 945 -128 0 -80 -254 -522 0 -174 254 -126 0z"/>
   <polygon class="fil2" points="6986,21898 7167,20953 7228,20953 7707,21660 7842,20953 7960,20953 7779,21898 7719,21898 7239,21192 7104,21898 "/>
   <path class="fil2" d="M8458 21756l87 -101c58,51 120,91 187,118 67,28 136,41 206,41 88,0 162,-18 224,-55 62,-37 98,-85 109,-143 9,-46 -4,-84 -37,-114 -34,-30 -84,-48 -152,-54 -16,-2 -40,-3 -71,-5 -154,-11 -256,-29 -308,-55 -39,-21 -68,-48 -84,-82 -17,-33 -21,-71 -13,-112 14,-76 60,-139 138,-188 77,-50 170,-74 279,-74 78,0 154,13 226,39 72,26 137,64 197,115l-87 98c-50,-47 -104,-82 -164,-106 -60,-24 -124,-36 -192,-36 -71,0 -132,14 -184,42 -52,28 -81,63 -89,105 -3,16 -3,31 2,45 5,14 14,27 27,39 33,29 114,47 241,55 59,4 105,7 136,11 94,11 164,42 211,93 46,51 62,113 48,187 -17,89 -69,161 -157,218 -88,57 -194,86 -319,86 -94,0 -179,-14 -254,-41 -76,-27 -145,-69 -207,-126z"/>
   <path class="fil2" d="M10241 21374l417 0c60,0 107,-13 142,-40 36,-26 59,-64 68,-115 10,-49 2,-88 -23,-116 -26,-28 -66,-41 -121,-41l-424 0 -59 312zm-218 524l180 -945 543 0c92,0 160,23 204,68 44,46 58,109 43,188 -15,82 -54,149 -114,199 -61,51 -134,76 -219,76l-440 0 -79 414 -118 0z"/>
   <path class="fil2" d="M11946 21813c106,0 201,-37 285,-109 83,-73 135,-165 157,-276 21,-112 4,-204 -52,-277 -55,-72 -136,-109 -243,-109 -106,0 -201,37 -285,110 -84,73 -136,165 -157,276 -21,111 -4,203 52,276 56,72 137,109 243,109zm-21 110c-142,0 -250,-47 -325,-140 -74,-93 -98,-212 -70,-355 27,-144 96,-263 207,-356 110,-93 235,-140 377,-140 141,0 249,47 325,140 75,94 99,212 72,356 -28,143 -97,262 -207,355 -111,93 -237,140 -379,140z"/>
   <path class="fil2" d="M13299 21374l418 0c59,0 107,-13 142,-40 36,-26 58,-64 68,-115 9,-49 2,-88 -24,-116 -25,-28 -65,-41 -121,-41l-423 0 -60 312zm-218 524l181 -945 543 0c92,0 160,23 203,70 44,46 58,111 42,193 -13,68 -44,127 -95,175 -50,49 -110,80 -180,92l157 415 -129 0 -158 -414 -367 0 -79 414 -118 0z"/>
   <polygon class="fil2" points="14758,21898 14918,21062 14520,21062 14540,20953 15455,20953 15434,21062 15036,21062 14876,21898 "/>
   <polygon class="fil2" points="15784,21898 15965,20953 16709,20953 16688,21062 16062,21062 16009,21339 16388,21339 16367,21448 15988,21448 15923,21790 16588,21790 16567,21898 "/>
   <path class="fil2" d="M17139 21756l88 -101c57,51 119,91 186,118 67,28 136,41 207,41 87,0 162,-18 223,-55 62,-37 98,-85 109,-143 9,-46 -3,-84 -37,-114 -33,-30 -84,-48 -152,-54 -16,-2 -40,-3 -71,-5 -153,-11 -256,-29 -307,-55 -40,-21 -69,-48 -85,-82 -16,-33 -21,-71 -13,-112 15,-76 61,-139 138,-188 77,-50 170,-74 279,-74 79,0 154,13 226,39 72,26 138,64 197,115l-87 98c-50,-47 -104,-82 -164,-106 -60,-24 -123,-36 -191,-36 -71,0 -133,14 -185,42 -51,28 -81,63 -89,105 -3,16 -2,31 3,45 4,14 13,27 26,39 34,29 114,47 242,55 58,4 104,7 136,11 93,11 164,42 210,93 46,51 62,113 48,187 -17,89 -69,161 -157,218 -87,57 -194,86 -318,86 -94,0 -179,-14 -255,-41 -76,-27 -145,-69 -207,-126z"/>
  </g>
 </g>
</svg>
