<?xml version="1.0" encoding="UTF-8"?>
<!DOCTYPE svg PUBLIC "-//W3C//DTD SVG 1.1//EN" "http://www.w3.org/Graphics/SVG/1.1/DTD/svg11.dtd">
<!-- Creator: CorelDRAW X7 -->
<svg xmlns="http://www.w3.org/2000/svg" xml:space="preserve" width="279.4mm" height="215.9mm" version="1.1" style="shape-rendering:geometricPrecision; text-rendering:geometricPrecision; image-rendering:optimizeQuality; fill-rule:evenodd; clip-rule:evenodd"
viewBox="0 0 27940 21590"
 xmlns:xlink="http://www.w3.org/1999/xlink">
 <defs>
  <style type="text/css">
   <![CDATA[
    .fil0 {fill:white}
    .fil1 {fill:white;fill-rule:nonzero}
   ]]>
  </style>
 </defs>
 <g id="Layer_x0020_1">
  <metadata id="CorelCorpID_0Corel-Layer"/>
  <g id="_3144485794176">
   <path class="fil0" d="M7095 8108l1560 2659 -1943 0 -374 -636 -1965 3351 -1944 0 3152 -5374 1514 0 0 0zm2452 4179l701 1195 -1944 0 -701 -1195 1944 0z"/>
   <polygon class="fil0" points="6962,11195 9581,11195 9971,11859 7353,11859 "/>
   <path class="fil1" d="M14236 11333l-579 -2551 -644 0 -1552 2551 674 0 267 -465 1074 0 90 465 670 0zm-866 -1005l-652 0 484 -838 168 838zm3076 457l-1256 0 382 -2003 -628 0 -487 2551 1885 0 104 -548zm2337 7l-1360 0 92 -480 1237 0 98 -510 -1238 0 92 -479 1348 0 103 -541 -1976 0 -487 2551 1987 0 104 -541zm917 541l486 -2551 -628 0 -486 2551 628 0zm2052 0l742 0 -555 -1279 1034 -1272 -742 0 -690 860 -357 -860 -742 0 549 1272 -1044 1279 743 0 695 -868 367 868zm2630 -2608c-762,0 -1472,590 -1614,1336 -142,743 344,1329 1105,1329 762,0 1471,-586 1613,-1329 142,-746 -343,-1336 -1104,-1336zm-399 2090c-415,0 -670,-320 -587,-754 83,-438 461,-761 876,-761 415,0 669,323 586,761 -83,434 -460,754 -875,754z"/>
   <polygon class="fil1" points="11361,13312 11505,12555 11145,12555 11164,12457 11990,12457 11972,12555 11611,12555 11467,13312 "/>
   <path class="fil1" d="M12480 12837l377 0c54,0 97,-12 129,-35 32,-24 53,-59 61,-105 9,-44 2,-80 -21,-104 -23,-26 -59,-38 -110,-38l-382 0 -54 282zm-197 475l163 -855 491 0c83,0 145,21 184,63 40,42 52,100 38,174 -12,62 -40,115 -86,159 -45,44 -100,72 -163,83l142 376 -117 0 -142 -375 -332 0 -72 375 -106 0z"/>
   <path class="fil1" d="M13805 12982l376 0 -117 -379 -259 379zm-339 330l582 -855 89 0 260 855 -115 0 -72 -230 -473 0 -157 230 -114 0z"/>
   <polygon class="fil1" points="14942,13312 15105,12457 15161,12457 15594,13096 15716,12457 15822,12457 15659,13312 15605,13312 15170,12673 15049,13312 "/>
   <path class="fil1" d="M16273 13183l79 -92c52,47 108,83 169,108 60,24 123,37 187,37 79,0 146,-17 202,-51 55,-33 88,-76 98,-129 8,-42 -3,-76 -33,-103 -30,-27 -76,-43 -138,-48 -14,-2 -36,-4 -64,-5 -139,-10 -231,-26 -278,-50 -36,-19 -62,-44 -77,-74 -14,-30 -18,-64 -11,-102 13,-69 54,-125 125,-170 69,-44 154,-66 252,-66 71,0 139,11 204,35 65,23 125,58 178,104l-79 89c-44,-43 -93,-75 -148,-96 -54,-22 -111,-32 -173,-32 -64,0 -120,12 -167,37 -46,25 -73,57 -80,95 -3,15 -2,28 2,41 4,12 13,24 24,35 30,26 103,43 219,50 53,3 94,6 122,10 85,10 149,38 191,84 41,46 56,102 43,169 -15,80 -62,146 -141,197 -80,52 -176,78 -289,78 -85,0 -162,-13 -230,-37 -69,-25 -131,-63 -187,-114z"/>
   <path class="fil1" d="M17885 12837l378 0c53,0 96,-12 128,-35 33,-24 53,-59 62,-105 8,-44 1,-80 -22,-104 -22,-26 -59,-38 -109,-38l-383 0 -54 282zm-197 475l163 -855 491 0c83,0 145,20 184,61 40,42 53,98 40,170 -15,74 -49,135 -104,180 -55,46 -121,69 -197,69l-399 0 -71 375 -107 0z"/>
   <path class="fil1" d="M19427 13234c96,0 182,-33 258,-98 75,-66 122,-149 142,-250 19,-101 3,-185 -47,-250 -50,-66 -123,-98 -220,-98 -96,0 -182,33 -258,98 -75,66 -122,150 -142,250 -19,101 -3,184 47,250 51,65 124,98 220,98zm-19 100c-128,0 -226,-42 -293,-127 -67,-84 -89,-191 -64,-321 25,-130 87,-237 187,-322 100,-84 213,-126 341,-126 128,0 226,42 294,127 68,84 89,191 65,321 -25,130 -87,237 -187,321 -100,85 -215,127 -343,127z"/>
   <path class="fil1" d="M20651 12837l377 0c54,0 97,-12 129,-35 32,-24 53,-59 62,-105 8,-44 1,-80 -22,-104 -23,-26 -59,-38 -109,-38l-383 0 -54 282zm-197 475l163 -855 491 0c83,0 145,21 184,63 40,42 52,100 38,174 -12,62 -40,115 -86,159 -45,44 -100,72 -162,83l141 376 -117 0 -142 -375 -332 0 -72 375 -106 0z"/>
   <polygon class="fil1" points="21970,13312 22115,12555 21755,12555 21773,12457 22600,12457 22581,12555 22221,12555 22077,13312 "/>
   <polygon class="fil1" points="22898,13312 23061,12457 23734,12457 23715,12555 23149,12555 23101,12806 23444,12806 23425,12904 23082,12904 23023,13213 23625,13213 23606,13312 "/>
   <path class="fil1" d="M24123 13183l80 -92c51,47 107,83 168,108 61,24 123,37 187,37 79,0 146,-17 202,-51 56,-33 89,-76 99,-129 8,-42 -4,-76 -34,-103 -30,-27 -76,-43 -137,-48 -15,-2 -36,-4 -65,-5 -138,-10 -231,-26 -278,-50 -36,-19 -61,-44 -76,-74 -15,-30 -19,-64 -12,-102 13,-69 55,-125 125,-170 70,-44 154,-66 252,-66 71,0 139,11 205,35 65,23 124,58 178,104l-79 89c-45,-43 -94,-75 -148,-96 -54,-22 -112,-32 -173,-32 -65,0 -120,12 -167,37 -47,25 -74,57 -81,95 -3,15 -2,28 2,41 5,12 13,24 25,35 30,26 102,43 218,50 53,3 94,6 123,10 85,10 148,38 190,84 42,46 57,102 44,169 -16,80 -63,146 -142,197 -79,52 -176,78 -288,78 -85,0 -162,-13 -231,-37 -68,-25 -130,-63 -187,-114z"/>
  </g>
 </g>
</svg>
